<?xml version="1.0" encoding="UTF-8" standalone="no"?>
<svg
   xmlns:dc="http://purl.org/dc/elements/1.1/"
   xmlns:cc="http://creativecommons.org/ns#"
   xmlns:rdf="http://www.w3.org/1999/02/22-rdf-syntax-ns#"
   xmlns:svg="http://www.w3.org/2000/svg"
   xmlns="http://www.w3.org/2000/svg"
   xmlns:sodipodi="http://sodipodi.sourceforge.net/DTD/sodipodi-0.dtd"
   xmlns:inkscape="http://www.inkscape.org/namespaces/inkscape"
   version="1.1"
   id="svg2"
   xml:space="preserve"
   width="257.33334"
   height="257.33334"
   viewBox="0 0 257.33334 257.33334"
   sodipodi:docname="Mary_Kay_Cosmetics.eps"><metadata
     id="metadata8"><rdf:RDF><cc:Work
         rdf:about=""><dc:format>image/svg+xml</dc:format><dc:type
           rdf:resource="http://purl.org/dc/dcmitype/StillImage" /></cc:Work></rdf:RDF></metadata><defs
     id="defs6" /><sodipodi:namedview
     pagecolor="#ffffff"
     bordercolor="#666666"
     borderopacity="1"
     objecttolerance="10"
     gridtolerance="10"
     guidetolerance="10"
     inkscape:pageopacity="0"
     inkscape:pageshadow="2"
     inkscape:window-width="640"
     inkscape:window-height="480"
     id="namedview4" /><g
     id="g10"
     inkscape:groupmode="layer"
     inkscape:label="ink_ext_XXXXXX"
     transform="matrix(1.3333333,0,0,-1.3333333,0,257.33333)"><g
       id="g12"
       transform="scale(0.1)"><path
         d="M 0,1927.56 H 1927.56 V 0 H 0 v 1927.56"
         style="fill:transparent;fill-opacity:1;fill-rule:evenodd;stroke:none"
         id="path14" /><path
         d="m 224.457,509.68 c -1.187,4.164 -1.785,9.519 -1.785,14.277 h -40.461 v -4.164 l 8.926,-2.977 c 12.496,-4.757 7.14,-19.632 4.164,-35.699 -4.164,-32.133 -8.926,-64.262 -13.684,-95.797 -2.976,-20.828 -4.164,-39.871 -13.687,-42.847 l -5.356,-2.973 v -4.762 h 43.438 v 5.953 c -10.114,1.192 -11.305,7.137 -10.114,14.872 l 19.04,117.816 36.89,-80.328 c 15.473,-33.321 23.801,-52.36 27.371,-61.285 h 5.953 c 8.926,23.797 20.825,50.574 35.106,81.515 l 37.484,82.117 22.613,-139.835 c 0.594,-7.735 0,-13.68 -10.71,-14.872 v -5.953 h 43.437 v 4.762 l -4.762,2.973 c -9.519,2.976 -10.711,22.019 -14.277,42.847 -4.766,31.535 -8.93,63.664 -13.094,95.797 -2.976,16.067 -8.926,30.942 4.164,35.699 l 7.739,2.977 v 4.164 H 352.98 c 0.598,-5.949 0,-10.113 -2.375,-14.875 -11.308,-26.18 -21.421,-49.387 -30.941,-69.023 l -31.535,-67.239 -33.918,71.996 c -10.711,23.211 -20.824,44.629 -29.754,64.864 z m 456.387,14.277 0.597,-4.164 8.922,-2.977 c 13.688,-4.757 10.117,-19.632 9.524,-35.699 0,-32.133 0,-64.262 -1.192,-95.797 0,-20.828 1.785,-39.871 -7.14,-42.847 l -4.758,-2.973 0.594,-4.762 h 44.031 l -0.598,5.953 c -10.117,1.192 -13.09,7.137 -12.492,14.872 l 1.785,117.816 1.192,36.894 c 7.136,2.973 14.277,4.165 22.011,4.165 11.305,0 19.641,-3.571 25.59,-8.926 11.899,-13.688 11.305,-53.555 -0.597,-66.645 -7.735,-7.14 -16.661,-11.304 -29.157,-11.304 -1.785,0 -5.355,0.597 -9.519,0.597 l -1.192,-4.168 c 10.118,-10.113 14.282,-14.875 22.61,-26.179 l 34.511,-44.629 c 3.575,-4.164 19.043,-19.039 32.731,-21.418 5.355,-0.598 15.473,-1.192 26.777,-0.598 v 3.57 c -16.066,0 -24.398,5.953 -34.511,19.637 l -26.782,32.727 c -11.304,15.472 -17.847,22.613 -25.586,35.703 14.282,3.57 24.993,10.113 32.727,19.039 16.664,20.828 14.285,65.453 -10.707,77.949 -5.953,2.977 -15.473,4.164 -28.563,4.164 -5.355,0 -12.496,0 -23.207,-0.594 -8.328,0 -16.66,-0.593 -20.828,-0.593 -7.73,0 -12.492,0.593 -26.773,1.187 z m 526.006,-89.254 c 0,-16.66 -0.6,-24.988 -0.6,-49.383 0,-20.828 0.6,-39.871 -7.73,-42.847 l -5.36,-2.973 1.79,-4.762 h 42.84 l -0.59,5.953 c -10.12,1.192 -11.9,7.137 -11.31,14.872 l 0.59,79.14 -0.59,69.621 c -0.59,7.735 1.19,13.684 11.31,15.469 l 0.59,5.949 h -42.84 l -1.79,-5.949 5.36,-1.785 c 8.33,-4.164 7.73,-22.016 7.73,-42.84 0,-27.375 0.6,-22.613 0.6,-40.465 z m 89.85,70.809 c 7.73,5.355 11.3,11.304 11.3,20.23 h 34.52 l -2.39,-5.949 -6.54,-1.785 c -4.76,-1.785 -15.47,-7.735 -22.02,-14.879 l -55.34,-55.336 c 7.74,-13.684 34.52,-45.219 45.82,-60.691 l 26.78,-32.727 c 10.12,-13.684 18.45,-19.637 34.51,-19.637 v -3.57 c -12.5,-0.594 -22.02,0 -26.78,0.598 -13.68,2.379 -29.75,17.254 -33.32,21.418 l -34.51,44.629 c -7.73,11.304 -22.61,29.156 -33.92,39.867 l 1.79,4.164 c 24.4,24.394 46.41,48.793 60.1,63.668 z M 484.488,355.563 c -0.601,-7.735 0,-13.68 10.114,-14.872 v -5.953 h -41.653 v 4.762 l 4.758,2.973 c 5.356,1.195 7.141,6.547 10.117,13.687 5.356,11.903 11.899,25.586 17.258,38.082 l 35.699,82.707 c 8.926,22.614 14.875,38.68 18.446,48.793 h 8.332 l 64.855,-157.09 c 2.383,-3.566 3.574,-9.515 5.356,-12.492 2.976,-7.14 5.355,-12.492 10.117,-13.687 l 4.761,-2.973 v -4.762 h -51.769 v 5.953 c 10.117,1.192 11.309,7.137 10.707,14.872 -0.59,0.597 -1.781,4.167 -2.973,5.953 l -7.734,19.043 h -86.875 l -1.785,-3.575 c -1.781,-4.164 -7.137,-17.847 -7.731,-21.421 z m 13.684,36.3 h 79.137 l -39.27,97.582 z m 899.088,-36.3 c -1.19,-7.735 0,-13.68 10.12,-14.872 v -5.953 h -41.06 v 4.762 l 4.16,2.973 c 4.76,1.195 7.73,6.547 10.12,13.687 4.76,11.903 11.9,25.586 17.85,38.082 l 34.51,82.707 c 9.52,22.614 16.66,38.68 19.63,48.793 h 8.34 l 64.26,-157.09 c 1.78,-3.566 4.16,-9.515 5.95,-12.492 1.79,-7.14 4.76,-12.492 9.52,-13.687 l 4.76,-2.973 v -4.762 h -51.17 v 5.953 c 10.11,1.192 11.3,7.137 10.11,14.872 -0.59,0.597 -2.38,4.167 -2.97,5.953 l -7.14,19.043 h -88.07 l -1.19,-3.575 c -2.38,-4.164 -7.14,-17.847 -7.73,-21.421 z m 14.28,36.3 h 78.54 l -39.87,97.582 z m -380.22,113.649 c 0.59,7.14 0,12.496 -10.12,14.281 v 5.949 h 41.05 v -5.949 l -4.16,-1.785 c -5.35,-1.785 -7.14,-7.735 -10.11,-14.879 L 946.227,313.91 c -12.497,-23.797 -22.016,-51.168 -59.5,-48.191 l 0.589,4.164 c 26.184,1.785 45.817,50.578 57.125,72.59 l -73.187,160.656 c -2.977,7.144 -5.949,13.094 -9.524,14.879 l -5.949,1.785 v 5.949 h 51.77 v -5.949 c -10.117,-1.785 -10.711,-7.734 -10.117,-15.469 0,-1.195 1.785,-4.168 2.382,-5.949 l 58.907,-129.723 z m 701.53,0 c 1.19,7.14 -0.59,12.496 -10.12,14.281 v 5.949 h 42.25 v -5.949 l -5.35,-1.785 c -4.76,-1.785 -7.14,-7.735 -10.12,-14.879 L 1648.36,313.91 c -12.5,-23.797 -22.61,-51.168 -59.5,-48.191 v 4.164 c 26.18,1.785 44.62,50.578 57.12,72.59 l -73.19,160.656 c -2.97,7.144 -5.95,13.094 -10.11,14.879 l -5.36,1.785 v 5.949 h 51.77 v -5.949 c -10.12,-1.785 -11.31,-7.734 -10.12,-15.469 1.19,-1.195 2.38,-4.168 2.98,-5.949 l 58.31,-129.723 72.59,136.86"
         style="fill:#543c10;fill-opacity:1;fill-rule:evenodd;stroke:none"
         id="path16" /><path
         d="m 705.238,175.867 c -4.164,-3.57 -8.925,-5.949 -14.277,-7.734 -5.356,-1.789 -11.305,-2.379 -17.856,-2.379 -5.355,0 -10.707,0.59 -15.468,2.379 -4.758,1.785 -8.926,4.164 -12.492,7.734 -4.762,3.571 -7.739,7.735 -9.524,12.496 -2.383,4.758 -3.57,10.711 -3.57,16.66 0,11.903 4.164,20.829 11.902,27.969 7.735,7.137 17.848,10.707 30.348,10.707 5.355,0 10.707,-0.594 15.469,-1.785 4.761,-1.785 8.925,-3.57 13.683,-6.543 l -5.355,-17.851 h -1.188 c -1.191,7.734 -3.57,13.089 -7.14,16.66 -3.571,4.164 -8.329,5.949 -13.688,5.949 -7.137,0 -13.09,-2.973 -17.254,-9.52 -4.168,-5.953 -5.949,-14.281 -5.949,-24.992 0,-11.304 1.781,-20.23 5.949,-26.773 4.164,-5.949 10.117,-9.524 17.254,-9.524 5.953,0 10.715,2.379 14.879,6.547 3.57,4.164 5.949,10.711 7.137,19.637 h 1.191 l 5.949,-19.637"
         style="fill:#543c10;fill-opacity:1;fill-rule:evenodd;stroke:none"
         id="path18" /><path
         d="m 752.246,169.32 c 7.141,0 11.902,2.977 15.473,8.93 2.972,5.949 4.758,14.871 4.758,26.773 0,11.903 -1.786,20.829 -4.758,26.778 -3.571,5.355 -8.332,8.328 -15.473,8.328 -6.543,0 -11.898,-2.973 -14.875,-8.328 -3.57,-5.949 -4.758,-14.875 -4.758,-26.778 0,-12.496 1.188,-21.421 4.758,-26.773 2.977,-5.953 8.332,-8.93 14.875,-8.93 z m -40.461,35.703 c 0,5.95 1.192,11.305 3.57,16.067 1.786,4.762 5.352,8.926 8.926,12.496 4.164,3.57 8.332,5.949 12.496,7.734 4.758,1.785 10.114,2.379 15.469,2.379 5.949,0 10.715,-0.594 15.473,-2.379 4.758,-1.785 8.926,-4.164 12.496,-7.734 4.164,-3.57 7.14,-8.332 9.519,-13.09 1.786,-4.762 2.973,-9.523 2.973,-15.473 0,-5.355 -1.187,-10.71 -2.973,-15.468 -2.379,-5.356 -5.355,-9.524 -10.117,-13.688 -2.972,-2.972 -7.14,-5.949 -11.898,-7.734 -4.758,-1.789 -10.114,-2.379 -15.473,-2.379 -5.355,0 -10.113,0.59 -15.469,2.379 -4.761,1.785 -8.925,4.762 -12.496,8.328 -4.164,3.57 -7.14,7.738 -8.926,12.496 -2.378,5.356 -3.57,10.711 -3.57,16.066 v 0"
         style="fill:#543c10;fill-opacity:1;fill-rule:evenodd;stroke:none"
         id="path20" /><path
         d="m 798.66,172.895 5.352,21.418 h 1.789 c 1.187,-8.329 4.164,-14.282 8.328,-18.446 4.168,-4.168 9.523,-6.547 16.066,-6.547 5.95,0 10.118,1.789 13.094,4.164 2.973,2.977 4.758,6.547 4.758,11.305 0,2.977 -1.192,5.953 -3.57,7.738 -1.786,1.786 -7.141,3.571 -15.469,4.762 -6.547,1.785 -11.309,2.973 -13.692,4.168 -2.972,1.188 -5.351,2.375 -7.136,4.16 -1.785,1.789 -2.973,4.168 -4.168,6.547 -1.188,2.383 -1.782,5.356 -1.782,7.738 0,7.137 2.977,13.09 8.926,17.254 5.949,4.758 13.684,6.543 23.203,6.543 4.766,0 9.52,0 14.282,-1.191 4.761,-1.188 8.925,-2.973 13.089,-4.758 l -4.761,-17.848 h -1.781 c -1.192,6.539 -3.571,11.301 -7.141,14.871 -3.57,3.571 -7.734,4.762 -13.09,4.762 -4.762,0 -8.926,-1.191 -11.305,-3.57 -2.976,-2.379 -4.761,-5.356 -4.761,-8.926 0,-1.785 0.593,-2.973 1.187,-4.164 0.598,-1.191 1.192,-2.973 2.383,-3.574 1.785,-1.781 6.547,-2.973 13.684,-4.754 2.98,-0.598 5.355,-0.598 7.144,-1.195 7.141,-1.786 12.492,-4.161 16.063,-7.735 3.57,-2.972 5.355,-7.734 5.355,-13.683 0,-7.735 -2.977,-14.282 -8.926,-19.039 -6.547,-4.762 -14.875,-7.141 -24.992,-7.141 -5.949,0 -11.898,0.59 -17.254,1.785 -5.355,1.188 -10.711,2.973 -14.875,5.356 v 0"
         style="fill:#543c10;fill-opacity:1;fill-rule:evenodd;stroke:none"
         id="path22" /><path
         d="m 882.559,201.457 c 0,-10.715 1.191,-18.449 2.382,-23.207 1.786,-4.766 4.758,-7.738 8.922,-9.523 v -1.188 c -2.383,0 -4.758,0 -7.136,0 -1.786,0 -3.575,0 -5.36,0 -1.785,0 -4.164,0 -6.543,0 -2.383,0 -4.164,0 -6.547,0 v 1.188 c 3.571,1.785 6.547,5.355 7.735,10.117 1.785,4.758 2.976,12.496 2.976,22.613 v 22.609 c 0,5.95 -0.597,10.114 -1.785,11.899 -1.191,2.379 -2.976,3.57 -5.949,4.762 v 1.187 c 3.57,0 6.543,0 8.922,0 1.789,0 3.574,0 5.355,0 1.196,0 2.977,0 5.356,0 2.383,0 3.574,0 4.761,0 4.168,-8.328 7.735,-16.66 11.305,-23.801 4.168,-7.734 7.735,-14.875 11.309,-22.015 l 16.66,45.816 c 2.973,0 4.762,0 6.547,0 1.187,0 2.379,0 3.566,0 1.789,0 3.57,0 5.356,0 2.382,0 5.355,0 8.925,0 v -1.187 c -1.785,-0.598 -3.57,-1.192 -4.761,-2.977 -0.594,-1.191 -1.192,-3.57 -1.192,-5.949 v -38.082 c 0,-10.117 0.598,-16.067 1.192,-19.043 1.191,-2.977 3.574,-5.356 6.547,-5.949 v -1.188 c -2.379,0 -4.762,0 -7.141,0 -2.383,0 -5.949,0 -10.113,0 -3.575,0 -6.547,0 -8.926,0 -2.383,0 -4.762,0 -7.141,0 v 1.188 c 2.973,0.593 4.758,2.382 5.949,5.355 1.192,2.379 1.192,8.926 1.192,19.637 v 37.484 l -23.801,-65.449 h -0.598 c -4.164,10.113 -8.925,20.23 -13.089,30.937 -4.758,10.715 -9.52,22.02 -14.875,33.325 v -28.559"
         style="fill:#543c10;fill-opacity:1;fill-rule:evenodd;stroke:none"
         id="path24" /><path
         d="m 963.48,167.539 v 1.188 c 2.977,0.593 4.762,2.382 5.954,5.355 1.187,2.977 1.785,9.52 1.785,19.637 v 37.484 c 0,2.977 -0.598,4.762 -1.785,5.953 -0.598,1.785 -2.383,2.379 -4.762,2.973 v 1.785 h 0.598 c 7.734,0 13.089,0 16.656,0 h 44.034 l 5.95,-19.039 -1.19,-0.594 c -4.76,5.356 -9.52,8.922 -15.47,11.899 -5.36,2.379 -12.5,3.57 -19.637,3.57 -1.785,0 -2.972,0 -4.164,0 -0.597,0 -1.191,0 -1.785,0 v -28.559 c 0.594,0 1.785,0 2.977,-0.597 1.187,0 2.375,0 3.566,0 6.543,0 11.313,1.191 15.473,3.57 4.16,1.785 6.54,5.356 7.73,8.926 h 1.79 v -28.563 h -1.79 c -1.19,4.164 -3.57,7.141 -7.73,9.52 -4.16,2.383 -8.93,2.976 -15.473,2.976 -1.781,0 -3.566,0 -4.164,0 -1.191,0 -1.785,0 -2.379,0 v -10.117 c 0,-10.707 0.594,-17.254 1.785,-19.633 1.781,-2.378 5.356,-3.574 10.111,-3.574 6.55,0 12.5,1.785 17.85,5.36 5.36,3.57 10.72,8.328 16.07,15.468 l 1.79,-0.593 -7.14,-24.395 h -44.04 c -0.59,0 -1.781,0 -3.567,0.594 -1.187,0 -2.382,0 -3.57,0 -2.973,0 -5.355,0 -7.734,-0.594 -2.977,0 -5.356,0 -7.739,0 v 0"
         style="fill:#543c10;fill-opacity:1;fill-rule:evenodd;stroke:none"
         id="path26" /><path
         d="m 1036.67,221.09 4.76,20.824 h 67.24 l 4.76,-20.824 -1.19,-0.594 c -3.57,5.356 -7.74,9.52 -11.9,13.09 -4.17,2.973 -7.74,4.164 -10.71,4.164 -2.38,0 -3.57,-0.594 -4.17,-1.785 -1.19,-1.192 -1.19,-4.762 -1.19,-10.711 v -31.535 c 0,-10.117 0.6,-16.66 1.19,-19.043 1.19,-2.977 3.58,-4.758 6.55,-5.949 v -1.188 c -2.38,0 -4.76,0 -7.14,0 -2.98,0 -5.95,0 -10.12,0 -4.16,0 -7.14,0 -9.52,0 -2.38,0 -4.76,0 -7.14,0 v 1.188 c 2.98,0.593 5.36,2.382 6.55,5.355 1.19,2.977 1.19,8.926 1.19,19.637 v 31.535 c 0,5.949 0,9.519 -1.19,10.711 -0.6,1.191 -1.79,1.785 -4.17,1.785 -2.97,0 -6.54,-1.191 -10.71,-4.164 -4.16,-3.57 -7.73,-7.734 -11.9,-13.09 l -1.19,0.594"
         style="fill:#543c10;fill-opacity:1;fill-rule:evenodd;stroke:none"
         id="path28" /><path
         d="m 1141.39,193.719 c 0,-10.117 0.6,-16.067 1.79,-19.043 1.19,-2.977 2.98,-4.758 6.55,-5.949 v -1.188 c -2.39,0 -4.77,0 -7.74,0 -2.38,0 -5.95,0 -10.11,0 -4.17,0 -7.15,0 -9.53,0 -2.38,0 -4.75,0 -7.14,0 v 1.188 c 2.98,0.593 5.36,2.382 6.55,5.355 1.19,2.977 1.19,9.52 1.19,19.637 v 38.082 c 0,2.379 0,4.164 -1.19,5.949 -1.19,1.191 -2.97,2.379 -5.36,2.977 v 1.187 c 2.98,0 5.36,0 7.74,0 2.38,0 4.76,0 7.74,0 2.97,0 5.35,0 8.32,0 2.39,0 5.36,0 7.74,0 v -1.187 c -2.38,-0.598 -4.16,-1.786 -4.76,-2.977 -1.19,-1.191 -1.79,-3.57 -1.79,-5.949 v -38.082"
         style="fill:#543c10;fill-opacity:1;fill-rule:evenodd;stroke:none"
         id="path30" /><path
         d="m 1228.27,175.867 c -4.16,-3.57 -9.52,-5.949 -14.88,-7.734 -4.76,-1.789 -10.71,-2.379 -17.25,-2.379 -5.36,0 -10.71,0.59 -15.47,2.379 -4.76,1.785 -8.93,4.164 -13.09,7.734 -4.17,3.571 -7.14,7.735 -9.53,12.496 -1.78,4.758 -2.97,10.711 -2.97,16.66 0,11.903 4.17,20.829 11.9,27.969 7.74,7.137 17.85,10.707 30.35,10.707 5.35,0 10.11,-0.594 15.47,-1.785 4.76,-1.785 8.92,-3.57 13.68,-6.543 l -5.35,-17.851 h -1.19 c -1.19,7.734 -3.57,13.089 -7.14,16.66 -3.57,4.164 -8.33,5.949 -13.69,5.949 -7.14,0 -13.09,-2.973 -17.25,-9.52 -4.17,-5.953 -5.95,-14.281 -5.95,-24.992 0,-11.304 1.78,-20.23 5.95,-26.773 4.16,-5.949 10.11,-9.524 17.25,-9.524 5.96,0 10.71,2.379 14.28,6.547 3.57,4.164 6.55,10.711 7.74,19.637 h 1.19 l 5.95,-19.637"
         style="fill:#543c10;fill-opacity:1;fill-rule:evenodd;stroke:none"
         id="path32" /><path
         d="m 1233.03,172.895 5.36,21.418 h 1.78 c 1.19,-8.329 4.17,-14.282 8.33,-18.446 4.16,-4.168 9.52,-6.547 16.07,-6.547 5.95,0 10.11,1.789 13.08,4.164 2.98,2.977 4.77,6.547 4.77,11.305 0,2.977 -1.19,5.953 -2.98,7.738 -2.38,1.786 -7.74,3.571 -16.06,4.762 -6.55,1.785 -11.31,2.973 -13.69,4.168 -2.97,1.188 -5.35,2.375 -7.14,4.16 -1.78,1.789 -2.98,4.168 -4.16,6.547 -1.19,2.383 -1.79,5.356 -1.79,7.738 0,7.137 2.97,13.09 8.92,17.254 5.96,4.758 13.69,6.543 23.21,6.543 4.76,0 9.52,0 14.28,-1.191 4.76,-1.188 8.93,-2.973 13.1,-4.758 l -4.77,-17.848 h -1.78 c -1.19,6.539 -3.57,11.301 -7.14,14.871 -3.57,3.571 -7.74,4.762 -13.1,4.762 -4.75,0 -8.92,-1.191 -11.3,-3.57 -2.97,-2.379 -4.76,-5.356 -4.76,-8.926 0,-1.785 0.6,-2.973 1.19,-4.164 0.6,-1.191 1.19,-2.973 2.38,-3.574 1.78,-1.781 6.55,-2.973 13.69,-4.754 2.97,-0.598 5.35,-0.598 7.13,-1.195 7.15,-1.786 12.5,-4.161 16.07,-7.735 3.57,-2.972 5.36,-7.734 5.36,-13.683 0,-7.735 -2.97,-14.282 -8.93,-19.039 -6.54,-4.762 -14.87,-7.141 -24.39,-7.141 -6.55,0 -12.5,0.59 -17.85,1.785 -5.36,1.188 -10.71,2.973 -14.88,5.356 v 0"
         style="fill:#543c10;fill-opacity:1;fill-rule:evenodd;stroke:none"
         id="path34" /><path
         d="m 821.867,1140.41 c -126.148,81.52 -246.344,173.74 -323.101,340.95 -21.418,58.31 -12.496,83.3 27.968,76.76 131.5,6.54 173.746,41.06 241.579,67.24 -107.102,-30.95 -208.856,-57.13 -267.762,-48.8 -30.344,12.5 -45.223,4.76 -45.223,-23.2 24.992,-243.97 232.063,-330.24 366.539,-412.95 z M 953.363,1404 c 17.258,60.1 52.367,98.18 92.827,118.41 47.6,44.04 107.7,126.15 143.99,176.13 11.31,26.19 38.68,27.97 51.18,-6.54 24.99,-73.79 70.21,-113.65 129.12,-130.91 -52.36,26.78 -87.47,76.16 -105.91,148.16 -29.16,50.58 -67.84,49.39 -85.09,14.88 -45.23,-68.43 -101.75,-130.91 -158.87,-192.79 C 946.824,1476.6 952.176,1441.49 953.363,1404 Z M 1351.44,845.273 c 29.75,23.801 58.91,42.84 88.66,141.618 3.57,36.289 21.42,60.689 52.95,74.379 -4.16,98.77 28.57,201.12 -10.71,254.08 -34.51,38.08 -88.65,56.52 -163.04,54.74 60.11,19.63 117.23,8.33 171.97,-33.92 83.9,-55.93 36.3,-156.49 42.25,-215.99 7.73,-76.17 7.14,-103.54 -13.09,-95.21 -64.86,13.09 -40.47,-61.286 -92.82,-129.118 -18.45,-34.512 -46.42,-44.629 -76.17,-50.579 z m -409.381,6.543 c 55.933,-41.652 115.441,-70.804 202.311,-11.304 68.43,58.316 96.4,120.199 138.64,164.828 54.15,49.38 71.41,102.94 24.4,148.16 -15.47,7.73 -19.64,22.01 -26.18,34.51 -10.71,20.83 -32.73,29.75 -52.37,41.06 39.28,-8.93 77.95,-23.21 108.3,-72 52.96,-66.05 16.66,-124.36 -44.63,-181.488 C 1199.71,834.563 1141.99,806.004 1088.44,792.91 1009.89,782.797 967.645,809.57 942.059,851.816 Z M 751.652,1057.7 c 12.496,-63.075 68.426,-89.852 138.641,-79.141 39.867,11.304 70.809,4.164 100.559,-5.95 14.278,-7.14 31.538,-1.191 51.178,17.852 25.58,30.939 48.19,45.219 70.8,54.149 19.64,7.73 40.47,10.11 56.53,24.99 19.64,17.85 30.35,46.41 36.89,85.09 7.74,-56.53 -2.97,-101.16 -53.55,-120.79 -47.01,-15.47 -91.04,-50.58 -126.15,-96.994 -3.56,-20.824 -17.25,-20.824 -41.648,0 -29.75,19.043 -72.593,24.992 -128.523,17.852 -91.637,7.14 -107.699,60.692 -104.727,102.942 z m 297.518,263.6 c 48.79,40.45 94.61,11.3 101.15,-34.51 5.95,-45.83 -29.75,-101.16 -58.91,-133.29 -60.69,-67.24 -143.992,-75.57 -231.465,-72.6 102.348,7.74 181.485,41.65 229.095,111.87 14.87,21.42 29.75,48.19 32.72,74.37 5.35,49.99 -40.46,69.03 -72.59,54.16 z M 552.914,1203.48 c -32.726,-98.18 58.313,-114.84 66.645,-190.41 1.187,-16.66 16.062,-29.152 49.98,-29.152 79.141,-18.449 117.816,-87.473 198.145,-54.746 -33.325,-16.664 -57.121,-39.274 -116.629,-11.305 -41.653,29.754 -86.871,44.625 -115.434,41.059 -24.988,2.379 -48.789,7.137 -44.035,26.179 -0.59,51.775 -23.203,80.335 -45.219,110.675 -32.722,41.06 -23.203,75.57 6.547,107.7 z m 16.66,251.7 c 57.719,-27.38 133.289,-35.71 155.899,-116.04 23.207,-110.07 47.004,-143.39 91.632,-160.65 -24.988,34.51 -54.144,67.24 -51.171,113.05 0.593,-2.38 1.191,-4.75 1.785,-7.14 6.543,138.05 123.761,155.31 68.426,376.65 -35.106,92.24 32.726,76.17 67.835,52.97 141.02,-39.88 149.35,-13.1 221.35,-30.35 -101.75,25.58 -196.361,27.96 -249.912,66.04 -32.129,41.66 -108.891,-33.32 -78.547,-81.51 80.926,-231.47 -30.937,-243.37 -35.101,-336.2 -23.207,74.38 -97.586,107.11 -192.196,123.18 z M 455.926,1340.93 c -11.903,-47 -21.422,-93.42 -12.496,-140.43 7.14,-44.62 6.543,-81.52 -10.711,-101.15 -20.235,-8.93 -17.852,-24.4 7.734,-45.22 71.406,-44.63 99.371,-118.415 132.692,-189.224 45.816,-60.691 101.156,-75.566 188.625,-32.722 26.179,18.445 52.359,25.586 82.707,31.535 26.777,9.519 47.003,27.371 65.453,49.984 -22.016,-35.109 -24.989,-62.48 -201.117,-127.933 -79.735,-16.661 -140.43,7.734 -170.18,70.214 -41.653,92.825 -67.238,158.276 -130.906,202.306 -44.629,17.85 -36.891,38.08 -14.282,51.77 44.035,39.27 12.496,98.18 26.778,138.64 6.543,49.39 20.824,72.6 35.703,92.23 z m 283.23,-605.735 c 37.489,-44.035 93.418,-60.695 171.367,-44.629 41.653,10.711 78.547,8.926 105.917,-21.418 11.3,-18.449 26.18,-11.906 33.92,2.375 23.8,58.907 80.33,81.52 142.21,99.372 90.44,17.851 111.27,55.335 122.57,95.207 4.16,-43.438 -7.73,-85.688 -126.74,-120.789 -58.9,-16.668 -109.48,-46.418 -127.33,-120.793 3.57,-52.957 -57.12,-35.704 -52.96,2.378 -4.76,36.297 -34.512,47.004 -80.329,40.461 -109.484,-5.351 -166.609,20.829 -188.625,67.836 z m 151.137,477.215 c -30.348,48.2 -47.004,91.63 -5.949,107.7 41.054,15.46 72.594,-5.96 96.394,-41.66 20.232,-30.34 24.992,-65.45 -1.191,-72 45.813,-22.01 53.553,38.09 11.305,100.57 -22.016,22.61 -61.883,51.17 -97.582,46.41 -79.735,-9.52 -52.364,-107.11 -2.977,-141.02 z m 133.287,213.02 c 37.49,26.77 80.92,43.43 141.62,26.77 27.37,-7.14 25.58,-5.35 51.17,0 16.06,3.57 26.18,-1.19 31.54,-14.28 7.14,-16.07 11.3,-27.37 22.61,-42.25 34.51,-47.6 53.55,-91.63 49.39,-139.23 19.04,30.35 25.58,66.04 -11.31,120.79 -22.61,33.32 -27.97,35.7 -33.92,76.16 -3.57,24.4 -11.9,41.06 -42.84,25.59 -21.42,-10.71 -28.56,-5.95 -52.96,-4.76 -79.14,3.57 -132.09,-5.36 -155.3,-48.79"
         style="fill:#543c10;fill-opacity:1;fill-rule:evenodd;stroke:none"
         id="path36" /></g></g></svg>
